<svg id="visual" viewBox="0 0 900 600" width="900" height="600" xmlns="http://www.w3.org/2000/svg" xmlns:xlink="http://www.w3.org/1999/xlink" version="1.1"><path d="M0 144L13.7 152.3C27.3 160.7 54.7 177.3 82 195.7C109.3 214 136.7 234 163.8 225.5C191 217 218 180 245.2 161.7C272.3 143.3 299.7 143.7 327 149.3C354.3 155 381.7 166 409 175.3C436.3 184.7 463.7 192.3 491 180.2C518.3 168 545.7 136 573 126.5C600.3 117 627.7 130 654.8 136.5C682 143 709 143 736.2 150.3C763.3 157.7 790.7 172.3 818 167.5C845.3 162.7 872.7 138.3 886.3 126.2L900 114L900 0L886.3 0C872.7 0 845.3 0 818 0C790.7 0 763.3 0 736.2 0C709 0 682 0 654.8 0C627.7 0 600.3 0 573 0C545.7 0 518.3 0 491 0C463.7 0 436.3 0 409 0C381.7 0 354.3 0 327 0C299.7 0 272.3 0 245.2 0C218 0 191 0 163.8 0C136.7 0 109.3 0 82 0C54.7 0 27.3 0 13.7 0L0 0Z" fill="#F7770F" stroke-linecap="round" stroke-linejoin="miter"></path></svg>